<svg width="20" height="15" viewBox="0 0 20 15" fill="none" xmlns="http://www.w3.org/2000/svg">
<path d="M8.12358 1.96974C8.57419 1.51913 8.57419 0.788558 8.12358 0.337954C7.67298 -0.112651 6.9424 -0.112651 6.4918 0.337954L0.337954 6.4918C0.112651 6.7171 0 7.0124 0 7.30769C0 7.46414 0.0311371 7.61332 0.0875524 7.74936C0.14386 7.88546 0.227327 8.01296 0.337954 8.12358L6.4918 14.2774C6.9424 14.728 7.67298 14.728 8.12358 14.2774C8.57419 13.8268 8.57419 13.0963 8.12358 12.6456L3.93948 8.46154H18.8462C19.4834 8.46154 20 7.94494 20 7.30769C20 6.67044 19.4834 6.15385 18.8462 6.15385H3.93948L8.12358 1.96974Z" fill=""/>
</svg>
