<svg width="18" height="18" viewBox="0 0 18 18" fill="none" xmlns="http://www.w3.org/2000/svg">
<path d="M6.06839 0.228062C4.7049 0.075672 3.29585 0.075672 1.93236 0.228062C1.05518 0.3261 0.345877 1.01685 0.242435 1.90129C0.0793447 3.29571 0.0793447 4.70438 0.242435 6.0988C0.345877 6.98323 1.05518 7.67399 1.93236 7.77203C3.29585 7.92442 4.7049 7.92442 6.06839 7.77203C6.94557 7.67399 7.65487 6.98323 7.75831 6.0988C7.9214 4.70438 7.9214 3.29571 7.75831 1.90129C7.65487 1.01685 6.94557 0.3261 6.06839 0.228062Z" fill="#24313A"/>
<path d="M6.06839 10.2281C4.7049 10.0757 3.29585 10.0757 1.93236 10.2281C1.05518 10.3261 0.345877 11.0169 0.242435 11.9013C0.0793447 13.2957 0.0793447 14.7044 0.242435 16.0988C0.345877 16.9832 1.05518 17.674 1.93236 17.772C3.29585 17.9244 4.7049 17.9244 6.06839 17.772C6.94557 17.674 7.65487 16.9832 7.75831 16.0988C7.9214 14.7044 7.9214 13.2957 7.75831 11.9013C7.65487 11.0169 6.94557 10.3261 6.06839 10.2281Z" fill="#24313A"/>
<path d="M16.0684 0.228062C14.7049 0.075672 13.2959 0.075672 11.9324 0.228062C11.0552 0.3261 10.3459 1.01685 10.2424 1.90129C10.0794 3.29571 10.0794 4.70438 10.2424 6.0988C10.3459 6.98323 11.0552 7.67399 11.9324 7.77203C13.2959 7.92442 14.7049 7.92442 16.0684 7.77203C16.9456 7.67399 17.6549 6.98323 17.7583 6.0988C17.9214 4.70438 17.9214 3.29571 17.7583 1.90129C17.6549 1.01685 16.9456 0.3261 16.0684 0.228062Z" fill="#24313A"/>
<path d="M16.0684 10.2281C14.7049 10.0757 13.2959 10.0757 11.9324 10.2281C11.0552 10.3261 10.3459 11.0169 10.2424 11.9013C10.0794 13.2957 10.0794 14.7044 10.2424 16.0988C10.3459 16.9832 11.0552 17.674 11.9324 17.772C13.2959 17.9244 14.7049 17.9244 16.0684 17.772C16.9456 17.674 17.6549 16.9832 17.7583 16.0988C17.9214 14.7044 17.9214 13.2957 17.7583 11.9013C17.6549 11.0169 16.9456 10.3261 16.0684 10.2281Z" fill="#24313A"/>
</svg>
