<svg width="20" height="20" viewBox="0 0 20 20" fill="" xmlns="http://www.w3.org/2000/svg">
<path fill-rule="evenodd" clip-rule="evenodd" d="M6.92955 2.4703C5.65833 2.32822 4.34242 2.32822 3.0712 2.4703C2.76231 2.50482 2.51872 2.74941 2.48397 3.04647C2.33217 4.34441 2.33217 5.65562 2.48397 6.95356C2.51872 7.25062 2.76231 7.49521 3.0712 7.52973C4.34242 7.67181 5.65833 7.67181 6.92955 7.52973C7.23844 7.49521 7.48203 7.25062 7.51678 6.95356C7.66858 5.65562 7.66858 4.34441 7.51678 3.04647C7.48203 2.74941 7.23844 2.50482 6.92955 2.4703ZM2.90459 0.979579C4.28654 0.825126 5.71421 0.825126 7.09616 0.979579C8.087 1.09032 8.88944 1.87031 9.00662 2.87222C9.17197 4.28593 9.17197 5.7141 9.00662 7.12781C8.88944 8.12972 8.087 8.90971 7.09616 9.02045C5.71421 9.1749 4.28654 9.1749 2.90459 9.02045C1.91375 8.90971 1.11131 8.12972 0.994127 7.12781C0.828781 5.7141 0.828781 4.28593 0.994127 2.87222C1.11131 1.87031 1.91375 1.09032 2.90459 0.979579Z" fill=""/>
<path fill-rule="evenodd" clip-rule="evenodd" d="M6.92955 12.4703C5.65833 12.3282 4.34242 12.3282 3.0712 12.4703C2.76231 12.5048 2.51872 12.7494 2.48397 13.0465C2.33217 14.3444 2.33217 15.6556 2.48397 16.9536C2.51872 17.2506 2.76231 17.4952 3.0712 17.5297C4.34242 17.6718 5.65833 17.6718 6.92955 17.5297C7.23844 17.4952 7.48203 17.2506 7.51678 16.9536C7.66858 15.6556 7.66858 14.3444 7.51678 13.0465C7.48203 12.7494 7.23844 12.5048 6.92955 12.4703ZM2.90459 10.9796C4.28654 10.8251 5.71421 10.8251 7.09616 10.9796C8.087 11.0903 8.88944 11.8703 9.00662 12.8722C9.17197 14.2859 9.17197 15.7141 9.00662 17.1278C8.88944 18.1297 8.087 18.9097 7.09616 19.0205C5.71421 19.1749 4.28654 19.1749 2.90459 19.0205C1.91375 18.9097 1.11131 18.1297 0.994127 17.1278C0.828781 15.7141 0.828781 14.2859 0.994127 12.8722C1.11131 11.8703 1.91375 11.0903 2.90459 10.9796Z" fill=""/>
<path fill-rule="evenodd" clip-rule="evenodd" d="M16.9295 2.4703C15.6583 2.32822 14.3424 2.32822 13.0712 2.4703C12.7623 2.50482 12.5187 2.74941 12.484 3.04647C12.3322 4.34441 12.3322 5.65562 12.484 6.95356C12.5187 7.25062 12.7623 7.49521 13.0712 7.52973C14.3424 7.67181 15.6583 7.67181 16.9295 7.52973C17.2384 7.49521 17.482 7.25062 17.5168 6.95356C17.6686 5.65562 17.6686 4.34441 17.5168 3.04647C17.482 2.74941 17.2384 2.50482 16.9295 2.4703ZM12.9046 0.979579C14.2865 0.825126 15.7142 0.825126 17.0962 0.979579C18.087 1.09032 18.8894 1.87031 19.0066 2.87222C19.172 4.28593 19.172 5.7141 19.0066 7.12781C18.8894 8.12972 18.087 8.90971 17.0962 9.02045C15.7142 9.1749 14.2865 9.1749 12.9046 9.02045C11.9138 8.90971 11.1113 8.12972 10.9941 7.12781C10.8288 5.7141 10.8288 4.28593 10.9941 2.87222C11.1113 1.87031 11.9138 1.09032 12.9046 0.979579Z" fill=""/>
<path fill-rule="evenodd" clip-rule="evenodd" d="M16.9295 12.4703C15.6583 12.3282 14.3424 12.3282 13.0712 12.4703C12.7623 12.5048 12.5187 12.7494 12.484 13.0465C12.3322 14.3444 12.3322 15.6556 12.484 16.9536C12.5187 17.2506 12.7623 17.4952 13.0712 17.5297C14.3424 17.6718 15.6583 17.6718 16.9295 17.5297C17.2384 17.4952 17.482 17.2506 17.5168 16.9536C17.6686 15.6556 17.6686 14.3444 17.5168 13.0465C17.482 12.7494 17.2384 12.5048 16.9295 12.4703ZM12.9046 10.9796C14.2865 10.8251 15.7142 10.8251 17.0962 10.9796C18.087 11.0903 18.8894 11.8703 19.0066 12.8722C19.172 14.2859 19.172 15.7141 19.0066 17.1278C18.8894 18.1297 18.087 18.9097 17.0962 19.0205C15.7142 19.1749 14.2865 19.1749 12.9046 19.0205C11.9138 18.9097 11.1113 18.1297 10.9941 17.1278C10.8288 15.7141 10.8288 14.2859 10.9941 12.8722C11.1113 11.8703 11.9138 11.0903 12.9046 10.9796Z" fill=""/>
</svg>
