<svg width="20" height="20" viewBox="0 0 20 20" fill="none" xmlns="http://www.w3.org/2000/svg">
<path d="M5.25686 0.837031C5.25686 0.374752 4.8821 0 4.41982 0C3.95754 0 3.58279 0.374752 3.58279 0.837031V2.86424C1.91646 3.09982 0.600032 4.4178 0.377184 6.09899L0.280589 6.82771C0.264212 6.95126 0.248553 7.07488 0.23361 7.19856C0.193972 7.52664 0.452453 7.81229 0.782921 7.81229H19.2171C19.5475 7.81229 19.806 7.52664 19.7664 7.19856C19.7514 7.07488 19.7358 6.95126 19.7194 6.82771L19.6228 6.09899C19.4 4.41782 18.0836 3.09986 16.4173 2.86425V0.837031C16.4173 0.374752 16.0425 0 15.5802 0C15.118 0 14.7432 0.374752 14.7432 0.837031V2.69818C11.5873 2.41713 8.41273 2.41713 5.25686 2.69817V0.837031Z" fill="#24313A"/>
<path d="M19.9825 10.0171C19.9728 9.71975 19.7271 9.48636 19.4296 9.48636H0.570445C0.27294 9.48636 0.0272261 9.71975 0.0174555 10.0171C-0.0488358 12.0345 0.0737078 14.0561 0.384786 16.0552C0.620282 17.5686 1.84978 18.731 3.37401 18.8814L4.70545 19.0127C8.22661 19.3599 11.7734 19.3599 15.2946 19.0127L16.626 18.8814C18.1502 18.731 19.3797 17.5686 19.6152 16.0552C19.9263 14.0561 20.0488 12.0345 19.9825 10.0171Z" fill="#24313A"/>
</svg>
