<svg width="20" height="20" viewBox="0 0 20 20" fill="none" xmlns="http://www.w3.org/2000/svg">
<path fill-rule="evenodd" clip-rule="evenodd" d="M4.41982 0C4.8821 0 5.25686 0.374752 5.25686 0.837031V2.69817C8.41273 2.41713 11.5873 2.41713 14.7432 2.69818V0.837031C14.7432 0.374752 15.118 0 15.5802 0C16.0425 0 16.4173 0.374752 16.4173 0.837031V2.86425C18.0836 3.09986 19.4 4.41782 19.6228 6.09899L19.7194 6.82771C20.1257 9.89273 20.0906 13.0001 19.6152 16.0552C19.3797 17.5686 18.1502 18.731 16.626 18.8814L15.2946 19.0127C11.7734 19.3599 8.22661 19.3599 4.70545 19.0127L3.37401 18.8814C1.84978 18.731 0.620282 17.5686 0.384786 16.0552C-0.0906008 13.0002 -0.12569 9.89273 0.280589 6.82771L0.377184 6.09899C0.600032 4.4178 1.91646 3.09982 3.58279 2.86424V0.837031C3.58279 0.374752 3.95754 0 4.41982 0ZM4.91665 4.4115C8.29735 4.0781 11.7027 4.0781 15.0834 4.4115L16.0939 4.51115C17.0612 4.60654 17.8355 5.35537 17.9633 6.31896L18.0599 7.04769C18.0936 7.30227 18.1241 7.55716 18.1515 7.81229H1.84853C1.87586 7.55716 1.90639 7.30227 1.94014 7.04769L2.03673 6.31897C2.16446 5.35537 2.9388 4.60654 3.90612 4.51115L4.91665 4.4115ZM1.71546 9.48636C1.60589 11.5935 1.71385 13.7086 2.03894 15.7978C2.15706 16.5569 2.77376 17.14 3.5383 17.2154L4.86974 17.3467C8.28164 17.6831 11.7184 17.6831 15.1303 17.3467L16.4617 17.2154C17.2262 17.14 17.8429 16.5569 17.9611 15.7978C18.2862 13.7086 18.3941 11.5935 18.2845 9.48636H1.71546Z" fill="#24313A"/>
</svg>
