<svg width="20" height="21" viewBox="0 0 20 21" fill="none" xmlns="http://www.w3.org/2000/svg">
<path fill-rule="evenodd" clip-rule="evenodd" d="M13.8351 0.501051C13.6743 0.340306 13.4563 0.25 13.229 0.25C13.0016 0.25 12.7836 0.340306 12.6229 0.501051L2.11729 11.0066C2.0096 11.1143 1.93255 11.2488 1.89406 11.3961L0.751207 15.7715C0.674304 16.0659 0.759263 16.379 0.974434 16.5942C1.18961 16.8093 1.50273 16.8943 1.79715 16.8174L6.17249 15.6745C6.31984 15.636 6.45428 15.559 6.56196 15.4513L17.0675 4.94572C17.4023 4.61099 17.4023 4.06827 17.0675 3.73354L13.8351 0.501051ZM3.49393 12.0544L13.229 2.31933L15.2493 4.33963L5.51423 14.0747L2.77964 14.789L3.49393 12.0544Z" fill=""/>
<path d="M1.10714 18.5357C0.633756 18.5357 0.25 18.9195 0.25 19.3929C0.25 19.8662 0.633756 20.25 1.10714 20.25H18.25C18.7234 20.25 19.1071 19.8662 19.1071 19.3929C19.1071 18.9195 18.7234 18.5357 18.25 18.5357H1.10714Z" fill=""/>
</svg>
