<svg width="16" height="21" viewBox="0 0 16 21" fill="none" xmlns="http://www.w3.org/2000/svg">
<path fill-rule="evenodd" clip-rule="evenodd" d="M6.50666 0.508021C6.68839 0.29893 6.97057 0.207037 7.24057 0.269023C10.8494 1.09754 12.6735 5.05216 12.2445 8.59028C12.0778 9.96567 11.6658 11.0439 11.0592 11.9018C11.0555 11.907 11.0517 11.9123 11.048 11.9175C11.1858 11.8498 11.3129 11.7767 11.4319 11.6995C12.0238 11.3153 12.4583 10.8083 13.0239 10.1481C13.0923 10.0683 13.1626 9.98627 13.2353 9.90195C13.3987 9.71245 13.6459 9.61693 13.8942 9.64728C14.1426 9.67762 14.3595 9.82984 14.4725 10.0531C14.97 11.0363 15.25 12.1479 15.25 13.3226C15.25 17.3267 12.0041 20.5726 8 20.5726C3.99594 20.5726 0.75 17.3267 0.75 13.3226C0.75 10.7856 2.05371 8.55349 4.02431 7.25904L4.09187 7.19097C4.12658 7.15599 4.16464 7.12452 4.20552 7.09702C5.07138 6.51438 5.69312 6.03784 6.11171 5.47741C6.50713 4.948 6.75 4.30218 6.75 3.32263C6.75 2.59735 6.61608 1.9051 6.37229 1.26807C6.27327 1.00935 6.32494 0.717111 6.50666 0.508021ZM8.17122 2.25079C8.22313 2.60077 8.25 2.9587 8.25 3.32263C8.25 4.59104 7.92229 5.55993 7.31349 6.37503C6.74173 7.14053 5.95028 7.72846 5.10466 8.29988L5.03236 8.37274C4.99362 8.41177 4.95071 8.44643 4.90439 8.47608C3.30648 9.49911 2.25 11.2877 2.25 13.3226C2.25 16.4983 4.82436 19.0726 8 19.0726C11.1756 19.0726 13.75 16.4983 13.75 13.3226C13.75 12.8028 13.6812 12.2997 13.5523 11.8216C13.1721 12.2333 12.7524 12.6306 12.2485 12.9577C11.3253 13.5569 10.1699 13.899 8.5 13.899C8.15775 13.899 7.85891 13.6673 7.77364 13.3358C7.68838 13.0044 7.83833 12.6572 8.13811 12.4921C8.81692 12.1181 9.39232 11.6609 9.83445 11.0357C10.2757 10.4118 10.6137 9.57873 10.7555 8.40973C11.0623 5.87899 10.0149 3.38105 8.17122 2.25079Z" fill=""/>
</svg>
