<svg width="14" height="20" viewBox="0 0 14 20" fill="none" xmlns="http://www.w3.org/2000/svg">
<path d="M7.06254 0.0650835C6.77291 -0.0619015 6.48765 0.0269335 6.30414 0.213821C6.12588 0.395361 6.03673 0.672434 6.09923 0.951788C6.1979 1.39273 6.25 1.85148 6.25 2.3227C6.25 3.39854 5.97885 4.15205 5.5123 4.7767C5.03803 5.41168 4.35149 5.92863 3.48466 6.51192C3.47103 6.52109 3.45834 6.53158 3.44678 6.54324L3.34179 6.64903C1.48195 7.85058 0.25 9.94269 0.25 12.3227C0.25 16.0506 3.27208 19.0727 7 19.0727C10.7279 19.0727 13.75 16.0506 13.75 12.3227C13.75 11.2281 13.4893 10.1938 13.0264 9.27894C12.9887 9.20451 12.9164 9.15378 12.8336 9.14366C12.7508 9.13354 12.6684 9.16539 12.614 9.22855C12.5435 9.3103 12.4744 9.39099 12.4064 9.47048C11.5281 10.4967 10.8193 11.3248 9.36616 11.6947C9.30436 11.7105 9.26597 11.6988 9.23873 11.6817C9.20667 11.6617 9.1716 11.6217 9.14757 11.5579C9.09748 11.4247 9.11897 11.255 9.22161 11.1437C9.99879 10.3011 10.5509 9.15729 10.7482 7.53017C11.1177 4.48227 9.73249 1.23568 7.06254 0.0650835Z" fill="#24313A"/>
</svg>
