<svg width="13" height="17" viewBox="0 0 13 17" fill="none" xmlns="http://www.w3.org/2000/svg">
<path d="M4.79464 0.25C4.46726 0.25 4.20186 0.515396 4.20186 0.842779V1.43556H0.842779C0.515396 1.43556 0.25 1.70096 0.25 2.02834C0.25 2.35572 0.515396 2.62112 0.842779 2.62112H11.908C12.2354 2.62112 12.5008 2.35572 12.5008 2.02834C12.5008 1.70096 12.2354 1.43556 11.908 1.43556H8.54891V0.842779C8.54891 0.515396 8.28352 0.25 7.95613 0.25H4.79464Z" fill="#24313A"/>
<path d="M4.79464 6.88912C5.12203 6.88912 5.38742 7.15452 5.38742 7.4819L5.38742 13.0145C5.38742 13.3419 5.12203 13.6073 4.79464 13.6073C4.46726 13.6073 4.20186 13.3419 4.20186 13.0145L4.20186 7.4819C4.20186 7.15452 4.46726 6.88912 4.79464 6.88912Z" fill="#24313A"/>
<path d="M8.54891 7.4819C8.54891 7.15452 8.28352 6.88912 7.95613 6.88912C7.62875 6.88912 7.36335 7.15452 7.36335 7.4819V13.0145C7.36335 13.3419 7.62875 13.6073 7.95613 13.6073C8.28352 13.6073 8.54891 13.3419 8.54891 13.0145V7.4819Z" fill="#24313A"/>
<path fill-rule="evenodd" clip-rule="evenodd" d="M1.62637 4.72918C1.65973 4.42898 1.91348 4.20186 2.21553 4.20186H10.5352C10.8373 4.20186 11.091 4.42898 11.1244 4.72918L11.2826 6.15292C11.5693 8.73374 11.5693 11.3384 11.2826 13.9192L11.267 14.0594C11.1532 15.0838 10.3592 15.9007 9.33843 16.0436C7.37265 16.3188 5.37812 16.3188 3.41234 16.0436C2.39155 15.9007 1.59758 15.0838 1.48375 14.0594L1.46818 13.9192C1.18142 11.3384 1.18142 8.73374 1.46818 6.15292L1.62637 4.72918ZM2.74609 5.38742L2.64649 6.28384C2.3694 8.77765 2.3694 11.2945 2.64649 13.7883L2.66206 13.9284C2.71605 14.4143 3.09259 14.8017 3.57672 14.8695C5.43344 15.1294 7.31733 15.1294 9.17405 14.8695C9.65817 14.8017 10.0347 14.4143 10.0887 13.9284L10.1043 13.7883C10.3814 11.2945 10.3814 8.77765 10.1043 6.28384L10.0047 5.38742H2.74609Z" fill="#24313A"/>
</svg>
