<svg width="22" height="18" viewBox="0 0 22 18" fill="" xmlns="http://www.w3.org/2000/svg">
<path d="M6.80033 0.125C3.55599 0.125 0.791992 2.55085 0.791992 5.70143C0.791992 7.87487 1.80973 9.70471 3.15856 11.2205C4.50276 12.7311 6.23699 13.999 7.8048 15.0602L10.5098 16.8913C10.8061 17.0918 11.1946 17.0918 11.4908 16.8913L14.1959 15.0602C15.7637 13.999 17.4979 12.7311 18.8421 11.2205C20.1909 9.70471 21.2087 7.87487 21.2087 5.70143C21.2087 2.55085 18.4447 0.125 15.2003 0.125C13.5279 0.125 12.0563 0.909162 11.0003 1.9238C9.94431 0.909162 8.47271 0.125 6.80033 0.125Z" fill=""/>
</svg>
