<svg width="22" height="19" viewBox="0 0 22 19" fill="black" xmlns="http://www.w3.org/2000/svg">
<path d="M6.47429 0C2.97835 0 0 2.61398 0 6.00888C0 8.35089 1.09666 10.3226 2.5501 11.956C3.99855 13.5837 5.86727 14.95 7.55665 16.0935L10.4715 18.0665C10.7907 18.2826 11.2093 18.2826 11.5285 18.0665L14.4433 16.0935C16.1327 14.95 18.0015 13.5837 19.4499 11.956C20.9033 10.3226 22 8.35088 22 6.00888C22 2.61398 19.0217 0 15.5257 0C13.7236 0 12.1379 0.844974 11 1.9383C9.86209 0.844974 8.27637 0 6.47429 0Z" fill=""/>
</svg>
