<svg width="19" height="21" viewBox="0 0 19 21" fill="none" xmlns="http://www.w3.org/2000/svg">
<path fill-rule="evenodd" clip-rule="evenodd" d="M11.4534 2.72644C10.5041 1.81558 9.00541 1.81558 8.05616 2.72644L3.01159 7.56699C2.888 7.68559 2.80486 7.84008 2.77396 8.00857C2.16975 11.3035 2.12515 14.6768 2.64204 17.9865L2.76473 18.7722H6.01019V11.9995C6.01019 11.5478 6.37632 11.1817 6.82797 11.1817H12.6816C13.1332 11.1817 13.4994 11.5478 13.4994 11.9995V18.7722H16.7448L16.8675 17.9865C17.3844 14.6768 17.3398 11.3035 16.7356 8.00856C16.7047 7.84008 16.6216 7.68559 16.498 7.56699L11.4534 2.72644ZM6.92375 1.5463C8.50583 0.0282063 11.0037 0.0282063 12.5858 1.5463L17.6304 6.38685C18.0017 6.74318 18.2515 7.20735 18.3443 7.71356C18.9817 11.1893 19.0287 14.7476 18.4835 18.2389L18.2864 19.501C18.2049 20.0229 17.7553 20.4077 17.2271 20.4077H12.6816C12.2299 20.4077 11.8638 20.0416 11.8638 19.5899V12.8173H7.64576V19.5899C7.64576 20.0416 7.27962 20.4077 6.82797 20.4077H2.28248C1.75421 20.4077 1.30467 20.0229 1.22316 19.501L1.02606 18.2389C0.480814 14.7476 0.527861 11.1893 1.16522 7.71356C1.25805 7.20735 1.50783 6.74318 1.87918 6.38685L6.92375 1.5463Z" fill="#24313A"/>
</svg>
