<svg width="16" height="19" viewBox="0 0 16 19" fill="none" xmlns="http://www.w3.org/2000/svg">
<path d="M9.79576 1.13609C8.81335 0.121469 7.1861 0.121467 6.20369 1.13608L1.40521 6.09182C1.12963 6.37643 0.944443 6.73624 0.872987 7.12592C0.290227 10.3039 0.24721 13.5573 0.745744 16.7496L0.922247 17.8798C0.977996 18.2368 1.28546 18.5 1.64677 18.5H4.99973C5.27587 18.5 5.49973 18.2761 5.49973 18V11H10.4997V18C10.4997 18.2761 10.7236 18.5 10.9997 18.5H14.3526C14.7139 18.5 15.0214 18.2368 15.0772 17.8798L15.2537 16.7496C15.7522 13.5573 15.7092 10.3039 15.1264 7.12591C15.055 6.73624 14.8698 6.37643 14.5942 6.09182L9.79576 1.13609Z" fill="#24313A"/>
</svg>
