<svg width="20" height="20" viewBox="0 0 20 20" fill="none" xmlns="http://www.w3.org/2000/svg">
<path d="M13.9997 5C13.9997 4.44772 14.4474 4 14.9997 4C15.552 4 15.9997 4.44772 15.9997 5C15.9997 5.55228 15.552 6 14.9997 6C14.4474 6 13.9997 5.55228 13.9997 5Z" fill="black"/>
<path fill-rule="evenodd" clip-rule="evenodd" d="M9.99969 5.25C7.37634 5.25 5.24969 7.37665 5.24969 10C5.24969 12.6234 7.37634 14.75 9.99969 14.75C12.623 14.75 14.7497 12.6234 14.7497 10C14.7497 7.37665 12.623 5.25 9.99969 5.25ZM6.74969 10C6.74969 8.20507 8.20477 6.75 9.99969 6.75C11.7946 6.75 13.2497 8.20507 13.2497 10C13.2497 11.7949 11.7946 13.25 9.99969 13.25C8.20477 13.25 6.74969 11.7949 6.74969 10Z" fill="black"/>
<path fill-rule="evenodd" clip-rule="evenodd" d="M15.2579 0.833015C11.7914 0.445574 8.20804 0.445574 4.74146 0.833015C2.72941 1.05789 1.10507 2.6429 0.868521 4.66543C0.453983 8.20973 0.453983 11.7903 0.868521 15.3346C1.10507 17.3571 2.72941 18.9421 4.74146 19.167C8.20804 19.5544 11.7914 19.5544 15.2579 19.167C17.27 18.9421 18.8943 17.3571 19.1309 15.3346C19.5454 11.7903 19.5454 8.20973 19.1309 4.66543C18.8943 2.6429 17.27 1.05789 15.2579 0.833015ZM4.90807 2.32373C8.26392 1.94867 11.7355 1.94867 15.0913 2.32373C16.4214 2.47239 17.4869 3.52201 17.641 4.83968C18.042 8.26821 18.042 11.7318 17.641 15.1603C17.4869 16.478 16.4214 17.5276 15.0913 17.6763C11.7355 18.0513 8.26392 18.0513 4.90807 17.6763C3.57797 17.5276 2.51248 16.478 2.35837 15.1603C1.95737 11.7318 1.95737 8.26821 2.35837 4.83968C2.51248 3.52201 3.57797 2.47239 4.90807 2.32373Z" fill="black"/>
</svg>
