<svg width="28" height="28" viewBox="0 0 28 28" fill="none" xmlns="http://www.w3.org/2000/svg">
<path d="M19.137 13.528L16.471 10.862C16.2126 10.6125 15.8031 10.6125 15.5448 10.862C15.2799 11.1178 15.2725 11.5398 15.5283 11.8046L17.057 13.3333L10.6663 13.3333C10.6661 13.3333 10.6666 13.3333 10.6663 13.3333C10.2983 13.3335 9.99943 13.6319 9.99967 13.9999L9.99967 16.6666C9.99967 16.6663 9.99967 16.6668 9.99967 16.6666C9.99992 17.0346 10.2983 17.3335 10.6663 17.3333C10.666 17.3333 10.6666 17.3333 10.6663 17.3333C11.0343 17.333 11.3333 17.0346 11.333 16.6666L11.333 14.6666L17.057 14.6666L15.5283 16.1952C15.4033 16.3202 15.3331 16.4897 15.3331 16.6665C15.333 17.0347 15.6315 17.3332 15.9997 17.3333C16.1765 17.3335 16.3461 17.2632 16.471 17.1379L19.1375 14.4714C19.1991 14.4099 19.2478 14.3363 19.2816 14.2546C19.3149 14.1738 19.3324 14.0881 19.3326 14.002C19.3326 14.0013 19.333 14.0007 19.333 13.9999C19.333 13.9131 19.3153 13.8265 19.2816 13.745C19.2477 13.6633 19.1987 13.5895 19.137 13.528ZM26.3968 11.6431L16.3564 1.60278C15.0537 0.303955 12.9456 0.303955 11.6429 1.60278L1.60254 11.6431C0.304362 12.9462 0.304362 15.0536 1.60254 16.3567L11.6429 26.3971C12.2676 27.0224 13.1158 27.373 13.9997 27.371C14.8834 27.3721 15.7313 27.0217 16.3564 26.3971L26.3968 16.3567C27.695 15.0536 27.695 12.9462 26.3968 11.6431ZM25.4541 15.414L15.4137 25.4543C14.6318 26.233 13.3675 26.233 12.5856 25.4543L2.54525 15.414C1.7666 14.6321 1.7666 13.3678 2.54525 12.5859L12.5856 2.54549C13.3675 1.76685 14.6318 1.76685 15.4137 2.54549L25.4541 12.5859C26.2327 13.3678 26.2327 14.6321 25.4541 15.414Z" fill="#161D23"/>
</svg>
