<svg width="19" height="19" viewBox="0 0 19 19" fill="none" xmlns="http://www.w3.org/2000/svg">
<path d="M18.9384 7.00198C18.4878 3.38166 15.6183 0.512168 11.998 0.0616403C11.45 -0.00656233 11 0.447709 11 0.999994V7.49999C11 7.77614 11.2239 7.99999 11.5 7.99999H18C18.5523 7.99999 19.0066 7.55004 18.9384 7.00198Z" fill="#24313A"/>
<path d="M9 1.5C4.30558 1.5 0.5 5.30558 0.5 10C0.5 14.6944 4.30558 18.5 9 18.5C13.6944 18.5 17.5 14.6944 17.5 10C17.5 9.72386 17.2761 9.5 17 9.5H10C9.72386 9.5 9.5 9.27614 9.5 9V2C9.5 1.72386 9.27614 1.5 9 1.5Z" fill="#24313A"/>
</svg>
