<svg width="19" height="19" viewBox="0 0 19 19" fill="" xmlns="http://www.w3.org/2000/svg">
<path fill-rule="evenodd" clip-rule="evenodd" d="M8.25 2.78832C4.59833 3.16361 1.75 6.24917 1.75 9.99999C1.75 14.0041 4.99594 17.25 9 17.25C12.7508 17.25 15.8364 14.4017 16.2117 10.75H9C8.58579 10.75 8.25 10.4142 8.25 9.99999V2.78832ZM0.25 9.99999C0.25 5.1675 4.16751 1.24999 9 1.24999C9.41421 1.24999 9.75 1.58578 9.75 1.99999V9.24999H17C17.4142 9.24999 17.75 9.58578 17.75 9.99999C17.75 14.8325 13.8325 18.75 9 18.75C4.16751 18.75 0.25 14.8325 0.25 9.99999Z" fill=""/>
<path fill-rule="evenodd" clip-rule="evenodd" d="M12.5 1.67364V6.49999H17.3264C16.7633 4.11559 14.8844 2.23667 12.5 1.67364ZM11.998 0.0616403C15.6183 0.512168 18.4878 3.38166 18.9384 7.00198C19.0066 7.55004 18.5523 7.99999 18 7.99999H11.5C11.2239 7.99999 11 7.77614 11 7.49999V0.999994C11 0.447709 11.45 -0.00656233 11.998 0.0616403Z" fill=""/>
</svg>
