<svg width="18" height="18" viewBox="0 0 18 18" fill="none" xmlns="http://www.w3.org/2000/svg">
<path fill-rule="evenodd" clip-rule="evenodd" d="M11.3854 12.4457C8.73512 14.5684 4.85569 14.4013 2.3989 11.9445C-0.237135 9.3085 -0.237135 5.03464 2.3989 2.3986C5.03494 -0.23744 9.30881 -0.23744 11.9448 2.3986C14.4016 4.85538 14.5687 8.73481 12.446 11.3851L17.6017 16.5407C17.8946 16.8336 17.8946 17.3085 17.6017 17.6014C17.3088 17.8943 16.8339 17.8943 16.541 17.6014L11.3854 12.4457ZM3.45956 10.8839C1.40931 8.83363 1.40931 5.50951 3.45956 3.45926C5.50982 1.40901 8.83393 1.40901 10.8842 3.45926C12.9329 5.50801 12.9344 8.82875 10.8887 10.8794C10.8872 10.8809 10.8857 10.8823 10.8842 10.8839C10.8827 10.8854 10.8812 10.8869 10.8797 10.8884C8.82906 12.9341 5.50831 12.9326 3.45956 10.8839Z" fill="#24313A"/>
</svg>
