<svg width="22" height="20" viewBox="0 0 22 20" fill="none" xmlns="http://www.w3.org/2000/svg">
<path d="M11.8652 0.996237C11.4799 0.332087 10.5208 0.332084 10.1354 0.996237L7.42132 5.67355C7.23094 6.00163 6.90189 6.22552 6.52683 6.28217L1.44052 7.0504C0.586235 7.17942 0.286575 8.25803 0.951881 8.80923L4.74097 11.9485C5.09171 12.239 5.25663 12.6974 5.17143 13.1448L4.18026 18.35C4.02358 19.1728 4.88737 19.8121 5.62852 19.4219L10.4179 16.9001C10.7825 16.7081 11.2182 16.7081 11.5827 16.9001L16.3721 19.4219C17.1132 19.8121 17.977 19.1728 17.8203 18.35L16.8292 13.1448C16.744 12.6974 16.9089 12.239 17.2596 11.9485L21.0487 8.80923C21.714 8.25804 21.4144 7.17942 20.5601 7.0504L15.4738 6.28217C15.0987 6.22552 14.7697 6.00163 14.5793 5.67355L11.8652 0.996237Z" fill="#F4D251"/>
</svg>
