<svg width="19" height="20" viewBox="0 0 19 20" fill="none" xmlns="http://www.w3.org/2000/svg">
<path d="M9.25 0.75C6.84489 0.75 4.89516 2.69973 4.89516 5.10484C4.89516 7.50995 6.84489 9.45968 9.25 9.45968C11.6551 9.45968 13.6048 7.50995 13.6048 5.10484C13.6048 2.69973 11.6551 0.75 9.25 0.75Z" fill="#24313A"/>
<path d="M4.60484 11.7823C2.19973 11.7823 0.25 13.732 0.25 16.1371V17.517C0.25 18.3918 0.883929 19.1376 1.74722 19.2785C6.71618 20.0898 11.7838 20.0898 16.7528 19.2785C17.6161 19.1376 18.25 18.3918 18.25 17.517V16.1371C18.25 13.732 16.3003 11.7823 13.8952 11.7823H13.4993C13.2851 11.7823 13.0722 11.8161 12.8685 11.8826L11.8634 12.2108C10.1652 12.7653 8.33475 12.7653 6.63662 12.2108L5.6315 11.8826C5.42784 11.8161 5.21494 11.7823 5.00069 11.7823H4.60484Z" fill="#24313A"/>
</svg>
