<svg width="19" height="20" viewBox="0 0 19 20" fill="" xmlns="http://www.w3.org/2000/svg">
<path fill-rule="evenodd" clip-rule="evenodd" d="M4.31452 5.18548C4.31452 2.45969 6.52421 0.25 9.25 0.25C11.9758 0.25 14.1855 2.45969 14.1855 5.18548C14.1855 7.91128 11.9758 10.121 9.25 10.121C6.52421 10.121 4.31452 7.91128 4.31452 5.18548ZM9.25 1.99194C7.48625 1.99194 6.05645 3.42174 6.05645 5.18548C6.05645 6.94923 7.48625 8.37903 9.25 8.37903C11.0137 8.37903 12.4435 6.94923 12.4435 5.18548C12.4435 3.42174 11.0137 1.99194 9.25 1.99194Z" fill=""/>
<path fill-rule="evenodd" clip-rule="evenodd" d="M4.60484 13.6048C3.16177 13.6048 1.99194 14.7747 1.99194 16.2177V17.5977C1.99194 17.6187 2.00716 17.6366 2.0279 17.64C6.81097 18.4209 11.689 18.4209 16.4721 17.64C16.4928 17.6366 16.5081 17.6187 16.5081 17.5977V16.2177C16.5081 14.7747 15.3382 13.6048 13.8952 13.6048H13.4993C13.4687 13.6048 13.4383 13.6097 13.4092 13.6192L12.4041 13.9474C10.3546 14.6166 8.14539 14.6166 6.09592 13.9474L5.0908 13.6192C5.06171 13.6097 5.03129 13.6048 5.00069 13.6048H4.60484ZM0.25 16.2177C0.25 13.8126 2.19973 11.8629 4.60484 11.8629H5.00069C5.21494 11.8629 5.42784 11.8968 5.6315 11.9633L6.63662 12.2915C8.33475 12.846 10.1652 12.846 11.8634 12.2915L12.8685 11.9633C13.0722 11.8968 13.2851 11.8629 13.4993 11.8629H13.8952C16.3003 11.8629 18.25 13.8126 18.25 16.2177V17.5977C18.25 18.4724 17.6161 19.2182 16.7528 19.3592C11.7838 20.1704 6.71618 20.1704 1.74722 19.3592C0.883929 19.2182 0.25 18.4724 0.25 17.5977V16.2177Z" fill=""/>
</svg>
