<svg width="180" height="105" viewBox="0 0 180 105" fill="none" xmlns="http://www.w3.org/2000/svg">
<g clip-path="url(#clip0_1893_32362)">
<path d="M51.6976 104.096C51.1352 104.096 50.5817 103.882 50.1622 103.507C49.8318 103.203 49.5997 102.828 49.4926 102.417C49.0016 102.337 48.5374 102.086 48.1892 101.72C47.7697 101.274 47.5465 100.702 47.5643 100.103L47.6179 98.5936L47.3411 98.5758C46.2163 98.5132 45.2968 97.5663 45.2968 96.4497L45.2432 42.3961L41.4581 6.88734C41.3956 6.28883 41.5831 5.70819 41.9759 5.29727C42.3419 4.91315 42.8329 4.72556 43.3507 4.76129L45.1986 4.87742V1.92952C45.1986 1.37568 45.4129 0.848629 45.7967 0.482376C46.1538 0.142922 46.618 -0.0268056 47.1001 0.00892641L103.181 3.33201L127.16 0.330515C128.061 0.214386 128.954 0.473443 129.659 1.05409C130.418 1.67047 130.9 2.61737 130.98 3.65359L131.123 5.56526C131.248 5.65459 131.373 5.76179 131.489 5.86898C132.195 6.55682 132.605 7.53945 132.596 8.57568V10.7285C133.685 11.3539 134.409 12.6045 134.355 14.0338L133.525 36.8129L137.694 91.0095L138.515 96.7892C138.586 97.2805 138.488 97.7897 138.247 98.2274L138.488 101.345C138.542 101.988 138.301 102.64 137.846 103.123C137.381 103.614 136.739 103.891 136.078 103.891C136.069 103.891 136.051 103.891 136.042 103.891L71.4893 102.819L51.8316 104.105C51.7869 104.105 51.7334 104.105 51.6887 104.105L51.6976 104.096ZM49.8676 102.444C49.9658 102.747 50.1532 103.015 50.3943 103.239C50.7781 103.587 51.2959 103.775 51.8137 103.739L67.1507 102.739L49.8586 102.453L49.8676 102.444ZM75.8191 102.515L136.051 103.516C136.64 103.534 137.194 103.283 137.596 102.855C137.979 102.444 138.185 101.89 138.14 101.345L137.935 98.6562C137.48 99.1654 136.837 99.4601 136.158 99.4691L132.239 99.5316V100.514C132.239 101.157 131.971 101.756 131.489 102.203C131.007 102.658 130.364 102.899 129.704 102.864L96.6463 101.131L75.8101 102.497L75.8191 102.515ZM99.6726 100.952L129.731 102.524C130.284 102.551 130.838 102.345 131.248 101.961C131.65 101.577 131.882 101.068 131.882 100.523V99.5405L117.465 99.7817L99.6726 100.943V100.952ZM49.7783 102.086C49.7783 102.086 49.814 102.086 49.8318 102.086L71.4893 102.444L93.6378 100.997L81.8985 100.38L53.6884 100.845C53.6884 100.845 53.6616 100.845 53.6527 100.845C52.4475 100.845 51.412 99.9515 51.2424 98.7723L49.6354 98.6919L49.7604 101.926C49.7604 101.979 49.7604 102.033 49.7783 102.086ZM47.9661 98.6026L47.9125 100.103C47.8946 100.604 48.0821 101.086 48.4392 101.47C48.707 101.747 49.0463 101.944 49.4212 102.033C49.4212 101.997 49.4212 101.97 49.4212 101.935L49.2962 98.674L47.9839 98.6026H47.9661ZM87.0495 100.291L96.6463 100.791L110.18 99.9068L87.0495 100.291ZM51.5994 98.7902C51.7691 99.7549 52.6439 100.487 53.6438 100.487C53.6527 100.487 53.6706 100.487 53.6795 100.487L76.7386 100.103L51.5994 98.7902ZM51.5548 98.4328L81.8985 100.023L117.447 99.4333L129.061 98.674C130.106 98.6026 130.945 97.745 130.98 96.7266L131.998 68.7484L132.061 53.9375L125.856 10.3176L79.2471 7.37866L70.8912 7.72705L51.3138 10.1747L48.9123 73.608L51.5548 98.4328ZM131.962 79.6735L131.338 96.7356C131.293 97.9415 130.302 98.951 129.088 99.0314L124.731 99.3172L131.891 99.2011L131.971 79.6824L131.962 79.6735ZM132.364 68.7484L132.239 99.1832L136.149 99.1207C136.739 99.1117 137.31 98.8438 137.694 98.3882C137.765 98.3078 137.828 98.2184 137.881 98.1291L137.337 91.0274L132.73 58.6184L132.364 68.7574V68.7484ZM49.6176 98.3346L51.1977 98.415L48.8231 76.0735L48.7784 77.1633L49.6176 98.3256V98.3346ZM47.975 98.2452L49.2605 98.3167L48.5999 81.746L47.975 98.2452ZM45.5825 45.7549L45.636 96.4497C45.636 97.3787 46.4038 98.1738 47.3411 98.2184L47.6179 98.2363L48.4124 77.1812L48.1089 69.4988L45.5825 45.7638V45.7549ZM138.104 96.4765L138.167 97.2626C138.176 97.1197 138.176 96.9678 138.158 96.8249L138.113 96.4854L138.104 96.4765ZM132.793 56.6085L136.908 85.5425L133.4 39.9395L132.793 56.6085ZM48.4571 69.472L48.6356 71.1514L50.9388 10.2283L47.4393 10.666C46.6895 10.7643 46.1449 11.4432 46.1806 12.265L48.4571 69.472ZM45.5736 42.3782L47.8946 64.1569L45.8324 12.2829C45.7967 11.2824 46.4663 10.4338 47.4036 10.3176L50.9567 9.87097C51.037 8.91514 51.7601 8.18263 52.6796 8.1469L70.8466 7.38759L73.6408 7.03921L45.5289 5.26154L45.5646 42.3871L45.5736 42.3782ZM132.4 56.3673V57.8234L132.436 56.6263L132.4 56.3584V56.3673ZM132.409 53.9107L132.507 54.6254L133.159 36.804L132.507 28.3623L132.409 53.9107ZM126.213 10.3355L132.061 51.4809L132.168 23.9673L131.141 10.6481L126.204 10.3355H126.213ZM43.2346 5.10074C42.8507 5.10074 42.5026 5.2526 42.2348 5.52953C41.9134 5.86898 41.7616 6.34243 41.8152 6.83375L45.2432 39.0015L45.2075 5.2258L43.3328 5.10968C43.3328 5.10968 43.2703 5.10968 43.2435 5.10968L43.2346 5.10074ZM132.552 23.9494L133.302 33.6596L134.016 13.998C134.06 12.7831 133.498 11.7201 132.605 11.1305L132.552 23.9583V23.9494ZM131.534 10.6928L132.212 19.5633L132.248 10.9251C132.025 10.8179 131.784 10.7375 131.534 10.6928ZM131.507 10.3266C131.766 10.3712 132.016 10.4427 132.257 10.5409V8.55782C132.266 7.61985 131.9 6.72655 131.266 6.11017C131.239 6.08337 131.213 6.05657 131.186 6.02978L131.516 10.3266H131.507ZM126.187 9.97817L131.15 10.2908L130.802 5.74392C130.293 5.4134 129.713 5.2526 129.097 5.2794L124.83 5.45806C125.365 5.99404 125.731 6.72655 125.847 7.55732L126.195 9.97817H126.187ZM82.6573 7.23573L125.829 9.9603L125.499 7.61092C125.374 6.73548 124.946 5.98511 124.321 5.48486L82.6573 7.23573ZM66.6061 7.90571L52.7243 8.48635C52.019 8.51315 51.4477 9.07593 51.3495 9.81737L66.6061 7.90571ZM75.5691 7.13747L75.1763 7.19107L75.8815 7.16427L75.5691 7.1464V7.13747ZM77.4617 6.89628L79.2739 7.01241L123.803 5.14541C123.446 4.96675 123.053 4.85062 122.634 4.82382L103.208 3.67146L77.4617 6.89628ZM45.5557 4.88635L75.5602 6.78015L101.271 3.56426L47.0912 0.357314C46.6984 0.339448 46.3324 0.473443 46.0467 0.741433C45.7342 1.03622 45.5557 1.47394 45.5557 1.92952V4.89528V4.88635ZM129.213 4.92208C129.757 4.92208 130.284 5.05608 130.766 5.31513L130.641 3.67146C130.57 2.72456 130.141 1.89379 129.454 1.32208C128.82 0.803964 128.026 0.571706 127.222 0.678902L105.145 3.44814L122.66 4.48436C123.321 4.5201 123.928 4.75236 124.437 5.12754L129.079 4.93102C129.124 4.93102 129.177 4.93102 129.222 4.93102L129.213 4.92208Z" fill="#EE6352"/>
<path d="M37.9143 32.4983C37.9143 32.4983 26.907 26.4596 21.4078 26.4596C15.9086 26.4596 7.38308 29.7737 7.38308 39.3052C7.38308 52.0348 35.4235 55.5901 35.4235 64.1747C35.4235 70.8566 29.3887 73.3489 22.6487 73.3489C13.0608 73.3489 10.4719 58.538 7.38308 55.4561C5.40123 53.473 3.23191 52.401 1.46432 51.9008C0.39305 51.5971 -0.437183 52.8656 0.259142 53.741C2.09815 56.0546 3.05337 58.9579 2.93731 61.9147C2.81233 65.2646 2.81233 69.0432 3.80326 69.0432C8.09726 69.0432 11.2932 75.1266 21.4078 75.1266C30.8171 75.1266 39.3337 68.1231 39.3337 61.8611C39.3337 47.7827 10.2219 47.068 10.2219 34.6333C10.2219 30.0149 16.962 27.469 21.4078 27.469C27.9782 27.469 33.3703 35.2229 34.7183 37.1167C36.4948 39.6 36.1377 42.4407 36.1377 42.798C36.1377 43.1554 36.8519 42.798 36.8519 41.3777C36.8519 39.9573 36.8519 38.537 37.209 36.7593C37.5661 34.9817 38.2713 33.9186 38.2713 33.204C38.2713 32.4894 37.9143 32.4894 37.9143 32.4894V32.4983Z" fill="#105535"/>
<path d="M65.5981 62.3345C65.5981 62.3345 63.4645 74.0547 55.1264 74.0547C52.3858 74.0547 50.3504 73.3668 48.8595 72.4378C46.4492 70.946 45.0208 68.2839 44.9762 65.4522L44.6548 42.0834H40.3965V41.0204H40.5929C47.9222 40.8239 47.199 30.0774 47.1366 29.3449C47.1366 29.3271 47.1544 29.3181 47.1723 29.3271C47.3419 29.3985 48.2525 30.3544 49.9754 29.6665C51.7519 28.9519 51.3948 28.6035 53.5285 27.8889C55.3407 27.2814 56.1263 27.7102 56.3227 27.8531C56.3405 27.871 56.3227 27.8889 56.3048 27.8978C55.9834 27.9067 55.7335 28.0228 55.5371 28.1658C55.1621 28.4516 54.9657 28.9072 54.9479 29.3807C54.7158 36.8933 48.2525 39.9484 44.8512 41.0382L64.5357 41.0561C64.0358 41.0561 63.5627 41.0472 63.1163 41.0472C63.036 41.0472 62.6521 41.1276 62.5896 41.1812C62.3486 41.3688 61.9558 41.6904 62.054 41.7618H62.4021C62.6075 41.869 62.8128 41.9851 63.0092 42.1102H51.0467V62.1737C51.0467 62.1737 50.6271 73.0095 56.0192 73.0095C62.4646 73.0095 65.2499 61.9951 65.2499 61.9951L65.607 62.3524L65.5981 62.3345Z" fill="#105535"/>
<path d="M96.8427 42.1013C96.4856 42.4586 93.6468 44.2363 92.5844 46.7196C91.5221 49.203 78.3812 79.3966 76.9618 81.1743C75.5423 82.9519 75.5423 86.4983 66.6686 86.4983C62.7674 86.4983 62.6335 85.3102 48.9213 88.276C47.9839 88.4815 44.1809 90.2234 42.7436 92.4477C42.4312 92.9301 41.6902 92.7336 41.6456 92.1708C41.5474 91.0452 41.2171 89.9375 40.6011 88.9907C40.5297 88.8745 40.4583 88.7584 40.3958 88.6423C40.0387 87.9276 44.297 78.6998 52.4654 78.6998C60.6338 78.6998 61.6962 82.2552 71.6322 82.2552C71.6322 82.2552 74.8281 81.8978 75.8905 80.4775C76.7118 79.3877 78.0062 75.9753 78.5597 74.4656C78.7293 74.0011 78.7115 73.4829 78.5062 73.0274L65.9455 44.9598C65.9455 44.9598 64.785 43.2268 62.9995 42.1102C62.8031 41.9851 62.5978 41.869 62.3925 41.7618H62.0443C61.9461 41.6993 62.3389 41.3777 62.58 41.1901C62.6425 41.1365 63.0263 41.0561 63.1067 41.0561C63.553 41.0561 64.0262 41.0561 64.5261 41.0651C67.9988 41.1097 72.3821 41.2705 72.6945 41.0561C73.4623 40.5023 75.3191 39.8412 76.8993 41.3598C76.9171 41.3777 76.8993 41.4045 76.8814 41.4045C76.435 41.3688 75.7119 40.5201 73.0516 43.1911C73.0516 43.1911 72.6945 43.5484 72.6945 44.2541C72.6945 44.8973 80.2023 63.1564 81.6753 66.7385C81.7646 66.9618 82.086 66.9708 82.1842 66.7385L89.7277 49.3995C89.7277 49.3995 90.7901 47.6397 89.7277 45.2368C88.6654 42.8338 87.2459 42.8338 86.5318 42.1191C85.9426 41.5296 85.8444 41.1812 85.8265 41.0829C85.8265 41.0651 85.8354 41.0561 85.8533 41.0561C85.9693 41.074 86.4425 41.1812 87.7905 41.4402C89.3795 41.7529 96.4499 41.7886 97.0123 41.2258C97.548 40.6899 97.1909 41.7618 96.8338 42.1102L96.8427 42.1013Z" fill="#105535"/>
<path d="M64.5353 41.0472V42.0923H63.0087C62.8123 41.9673 62.607 41.8512 62.4017 41.744H62.0535C61.9553 41.6814 62.3481 41.3598 62.5892 41.1722C62.6517 41.1186 63.0355 41.0382 63.1159 41.0382C63.5622 41.0382 64.0354 41.0382 64.5353 41.0472Z" fill="#105535"/>
<path d="M100.387 28.9519C100.387 28.9519 100.074 28.6928 99.6726 28.5946C98.2532 28.2372 98.9584 27.5315 98.9584 27.5315C98.9584 27.5315 103.931 26.8169 104.636 25.3965C105.332 24.003 106.716 23.2884 107.77 24.2799C107.787 24.2978 107.77 24.3335 107.752 24.3246C107.511 24.3067 106.761 24.3425 106.761 25.3072V72.6343H106.805C106.805 73.7063 107.359 74.6353 108.18 75.1177H98.9941C99.8154 74.6353 100.369 73.7063 100.369 72.6343V28.943L100.387 28.9519Z" fill="#105535"/>
<path d="M111.439 75.1266H120.625C119.804 74.6442 119.25 73.7152 119.25 72.6432H119.206V43.075C119.206 41.9226 120.268 42.1013 120.268 42.1013C119.206 41.0383 117.786 41.744 117.072 43.1643C116.358 44.5847 111.394 45.2993 111.394 45.2993C111.394 45.2993 110.68 46.0139 112.109 46.3623C112.43 46.4427 112.653 46.5231 112.823 46.5946V72.6432C112.823 73.7152 112.269 74.6442 111.448 75.1266H111.439Z" fill="#105535"/>
<path d="M114.59 41.1633C114.59 37.4561 115.733 36.2412 119.205 36.2412C115.733 36.2412 114.59 35.0174 114.59 31.3191C114.59 35.0263 113.447 36.2412 109.975 36.2412C113.447 36.2412 114.59 37.465 114.59 41.1633Z" fill="#105535"/>
<path d="M169.609 94.0914C169.609 90.3842 170.751 89.1693 174.224 89.1693C170.751 89.1693 169.609 87.9455 169.609 84.2472C169.609 87.9544 168.466 89.1693 164.993 89.1693C168.466 89.1693 169.609 90.3931 169.609 94.0914Z" fill="#105535"/>
<path d="M6.67788 22.6988C6.67788 18.9916 7.82057 17.7767 11.2933 17.7767C7.82057 17.7767 6.67788 16.5529 6.67788 12.8546C6.67788 16.5618 5.5352 17.7767 2.0625 17.7767C5.5352 17.7767 6.67788 19.0005 6.67788 22.6988Z" fill="#105535"/>
<path d="M129.114 34.6065C129.114 31.0869 129.141 27.3082 133.757 27.3082C138.372 27.3082 139.077 30.7296 140.497 32.5072C141.916 34.2849 144.871 34.2402 145.166 34.2581C145.46 34.2849 146.532 25.0482 146.532 25.0482C145.469 26.1112 145.112 27.1831 142.63 26.8258C140.149 26.4685 138.72 25.0482 133.757 25.0482C128.07 25.0482 125.24 30.3722 125.24 33.9276C125.24 38.0636 127.74 40.5737 130.793 41.744H123.821C122.758 41.744 123.526 42.539 123.526 42.539C123.526 42.539 125.597 43.1643 126.659 43.8789C127.088 44.1648 127.284 45.1296 127.374 46.1926V72.6522C127.374 73.7241 126.82 74.6532 125.999 75.1356H135.185C134.364 74.6532 133.81 73.7241 133.81 72.6522H133.766V42.4586C134.239 42.5122 134.721 42.539 135.185 42.539C139.8 42.539 145.835 42.807 145.835 42.807V41.744C145.835 41.744 139.443 41.3866 136.962 41.3866C134.123 41.3866 129.123 38.9033 129.123 34.6065H129.114Z" fill="#105535"/>
<path d="M155.406 41.735C156.173 41.1901 158.03 40.5291 159.61 42.0387C159.628 42.0566 159.61 42.0834 159.593 42.0834C159.146 42.0477 158.423 41.199 155.754 43.87C155.754 43.87 155.397 44.2273 155.397 44.933C155.397 45.5762 162.905 63.8353 164.378 67.4174C164.467 67.6408 164.788 67.6497 164.886 67.4174L172.43 50.0785C172.43 50.0785 173.492 48.3187 172.43 45.9157C171.368 43.5127 169.948 43.5127 169.234 42.7981C168.645 42.2085 168.547 41.869 168.529 41.7618C168.529 41.744 168.538 41.735 168.556 41.735C168.672 41.7618 169.145 41.8601 170.493 42.1281C172.082 42.4407 179.152 42.4675 179.706 41.9137C180.241 41.3777 179.884 42.4497 179.527 42.7981C179.17 43.1464 176.331 44.933 175.269 47.4164C174.207 49.8998 161.066 80.0934 159.646 81.871C158.227 83.6487 158.227 87.1951 149.353 87.1951C145.452 87.1951 145.318 86.007 131.606 88.9728C130.668 89.1782 126.865 90.9202 125.428 93.1445C125.116 93.6269 124.375 93.4304 124.33 92.8586C124.232 91.7331 123.901 90.6254 123.294 89.6785C123.223 89.5624 123.152 89.4462 123.089 89.3301C122.732 88.6155 126.99 79.3877 135.159 79.3877C143.327 79.3877 144.39 82.943 154.326 82.943C154.326 82.943 157.521 82.5857 158.584 81.1653C159.405 80.0755 160.7 76.6631 161.253 75.1534C161.423 74.6889 161.405 74.1708 161.2 73.7152L148.639 45.6477C148.639 45.6477 147.211 43.5216 145.086 42.4497H144.738C144.639 42.3871 145.032 42.0655 145.273 41.878C145.336 41.8244 145.72 41.744 145.8 41.744C149.353 41.744 155.031 41.9941 155.388 41.744L155.406 41.735Z" fill="#105535"/>
</g>
<defs>
<clipPath id="clip0_1893_32362">
<rect width="180" height="104.096" fill="white"/>
</clipPath>
</defs>
</svg>
