<svg width="20" height="20" viewBox="0 0 20 20" fill="none" xmlns="http://www.w3.org/2000/svg">
<path fill-rule="evenodd" clip-rule="evenodd" d="M10 0.25C4.61554 0.25 0.25 4.61554 0.25 10C0.25 15.3845 4.61554 19.75 10 19.75C15.3845 19.75 19.75 15.3845 19.75 10C19.75 9.34798 19.6832 8.67275 19.5607 8.05425C19.4911 7.70305 19.183 7.45 18.8249 7.45H10C9.58579 7.45 9.25 7.78579 9.25 8.2V11.8C9.25 12.2142 9.58579 12.55 10 12.55H13.8828C13.6018 12.978 13.2524 13.3568 12.8502 13.6706C12.8443 13.6743 12.8386 13.678 12.8328 13.6819L12.8315 13.6828L12.8325 13.6843C12.0486 14.2899 11.0665 14.65 10 14.65C7.43206 14.65 5.35 12.5679 5.35 10C5.35 7.43206 7.43206 5.35 10 5.35C11.1837 5.35 12.2608 5.79565 13.084 6.52792C13.3807 6.79193 13.8319 6.77876 14.1128 6.49788L16.6584 3.95223C16.8023 3.80834 16.8816 3.61216 16.878 3.4087C16.8744 3.20524 16.7883 3.01197 16.6394 2.87324C14.9004 1.25246 12.5699 0.25 10 0.25ZM13.202 15.2492C12.2705 15.8203 11.1746 16.15 10 16.15C7.69196 16.15 5.68074 14.8784 4.62878 12.9975L2.95169 14.2897C4.40019 16.6644 7.01508 18.25 10 18.25C11.8212 18.25 13.5046 17.6598 14.8695 16.6602L13.202 15.2492ZM16.0054 15.6564C17.3971 14.1795 18.25 12.1893 18.25 10C18.25 9.65248 18.2275 9.29605 18.1853 8.95H10.75V11.05H15.0864C15.3299 11.05 15.5583 11.1683 15.6988 11.3671C15.8394 11.566 15.8746 11.8208 15.7933 12.0503C15.4929 12.8989 15.0119 13.6627 14.3961 14.2946L16.0054 15.6564ZM3.01958 5.60094C4.48099 3.287 7.06115 1.75 10 1.75C11.8918 1.75 13.6306 2.39163 15.0229 3.46644L13.5236 4.96571C12.5272 4.26519 11.3133 3.85 10 3.85C7.75612 3.85 5.79278 5.05193 4.71872 6.84704L3.01958 5.60094ZM2.33007 6.95541C1.95577 7.89743 1.75 8.92471 1.75 10C1.75 11.0258 1.93727 12.0079 2.27947 12.914L4.04748 11.5518C3.91859 11.0561 3.85 10.5361 3.85 10C3.85 9.39364 3.93777 8.80776 4.1013 8.25438L2.33007 6.95541Z" fill="black"/>
</svg>
